<svg width="1024" height="768" viewBox="0 0 1024 768" fill="none" xmlns="http://www.w3.org/2000/svg">
  <title>DeepEye Workspace Empty Shell</title>
  <defs>
    <linearGradient id="workspaceShellBg" x1="0" y1="0" x2="0" y2="768" gradientUnits="userSpaceOnUse">
      <stop offset="0" stop-color="#FBFBFC"/>
      <stop offset="1" stop-color="#F3F4F6"/>
    </linearGradient>
    <linearGradient id="workspaceCardBg" x1="18" y1="18" x2="18" y2="750" gradientUnits="userSpaceOnUse">
      <stop offset="0" stop-color="#FFFFFF"/>
      <stop offset="1" stop-color="#F8F9FB"/>
    </linearGradient>
    <symbol id="icon-menu" viewBox="0 0 24 24">
      <path d="M4 6h16M4 12h16M4 18h16" stroke-linecap="round" stroke-linejoin="round"/>
    </symbol>
    <symbol id="icon-hide-assistant" viewBox="0 0 24 24">
      <path d="M4 7h16M4 12h10M4 17h16" stroke-linecap="round" stroke-linejoin="round"/>
      <path d="M18 10v4" stroke-linecap="round" stroke-linejoin="round"/>
    </symbol>
    <symbol id="icon-plus" viewBox="0 0 24 24">
      <path d="M12 5v14M5 12h14" stroke-linecap="round" stroke-linejoin="round"/>
    </symbol>
    <symbol id="icon-document" viewBox="0 0 24 24">
      <path d="M9 12h6m-6 4h6m2 5H7a2 2 0 0 1-2-2V5a2 2 0 0 1 2-2h5.586a1 1 0 0 1 .707.293l5.414 5.414a1 1 0 0 1 .293.707V19a2 2 0 0 1-2 2z" stroke-linecap="round" stroke-linejoin="round"/>
    </symbol>
    <symbol id="icon-folder" viewBox="0 0 24 24">
      <path d="m6 14 1.5-2.9A2 2 0 0 1 9.24 10H20a2 2 0 0 1 1.94 2.5l-1.54 6a2 2 0 0 1-1.95 1.5H4a2 2 0 0 1-2-2V5a2 2 0 0 1 2-2h3.9a2 2 0 0 1 1.69.9l.81 1.2a2 2 0 0 0 1.67.9H18a2 2 0 0 1 2 2v2" stroke-linecap="round" stroke-linejoin="round"/>
    </symbol>
    <symbol id="icon-workflow" viewBox="0 0 24 24">
      <rect width="8" height="8" x="3" y="3" rx="2"/>
      <path d="M7 11v4a2 2 0 0 0 2 2h4" stroke-linecap="round" stroke-linejoin="round"/>
      <rect width="8" height="8" x="13" y="13" rx="2"/>
    </symbol>
    <symbol id="icon-dashboard" viewBox="0 0 24 24">
      <rect width="7" height="9" x="3" y="3" rx="1"/>
      <rect width="7" height="5" x="14" y="3" rx="1"/>
      <rect width="7" height="9" x="14" y="12" rx="1"/>
      <rect width="7" height="5" x="3" y="16" rx="1"/>
    </symbol>
    <symbol id="icon-video" viewBox="0 0 24 24">
      <path d="m16 13 5.223 3.482a.5.5 0 0 0 .777-.416V7.87a.5.5 0 0 0-.752-.432L16 10.5" stroke-linecap="round" stroke-linejoin="round"/>
      <rect x="2" y="6" width="14" height="12" rx="2"/>
    </symbol>
    <symbol id="icon-open-arrow" viewBox="0 0 24 24">
      <path d="M7 17 17 7M9 7h8v8" stroke-linecap="round" stroke-linejoin="round"/>
    </symbol>
  </defs>

  <rect width="1024" height="768" fill="url(#workspaceShellBg)"/>
  <rect x="0.5" y="0.5" width="1023" height="767" rx="32" fill="url(#workspaceCardBg)" stroke="#E4E6EB"/>

  <g id="toolbar">
    <rect x="0.5" y="0.5" width="1023" height="54" rx="32" fill="#F8F8FA" stroke="#E5E7EB"/>
    <path d="M16 54H1008" stroke="#E6E8EC"/>

    <rect x="6" y="10" width="74" height="34" rx="17" fill="#FFFFFF" stroke="#E5E7EB"/>
    <g transform="translate(18 19)" stroke="#4B5563" stroke-width="1.9" fill="none">
      <use href="#icon-menu" width="14" height="14"/>
    </g>
    <text x="40" y="31" fill="#374151" font-family="'Segoe UI', Arial, sans-serif" font-size="14" font-weight="600">Menu</text>

    <text x="88" y="33" fill="#111827" font-family="'Segoe UI', Arial, sans-serif" font-size="16" font-weight="700">Workspace</text>
    <text x="180" y="33" fill="#6B7280" font-family="'Segoe UI', Arial, sans-serif" font-size="12" font-weight="600">Reports, dashboards, files, and previews</text>

    <rect x="736" y="10" width="139" height="34" rx="17" fill="#FFFFFF" stroke="#E5E7EB"/>
    <g transform="translate(749 19)" stroke="#4B5563" stroke-width="1.8" fill="none">
      <use href="#icon-hide-assistant" width="14" height="14"/>
    </g>
    <text x="773" y="32" fill="#374151" font-family="'Segoe UI', Arial, sans-serif" font-size="14" font-weight="700">Hide assistant</text>

    <rect x="882" y="10" width="104" height="34" rx="17" fill="#17191F"/>
    <g transform="translate(896 19)" stroke="#FFFFFF" stroke-width="1.9" fill="none">
      <use href="#icon-plus" width="14" height="14"/>
    </g>
    <text x="920" y="32" fill="#FFFFFF" font-family="'Segoe UI', Arial, sans-serif" font-size="14" font-weight="700">New chat</text>
  </g>

  <g id="empty-state">
    <rect x="479" y="219" width="66" height="24" rx="12" fill="#F9FAFB" stroke="#E5E7EB"/>
    <text x="512" y="235" text-anchor="middle" fill="#6B7280" font-family="'Segoe UI', Arial, sans-serif" font-size="11" font-weight="700" letter-spacing="1">WORKSPACE</text>

    <g transform="translate(482 261)" stroke="#B8BDC7" stroke-width="1.7" fill="none">
      <use href="#icon-document" width="60" height="60"/>
    </g>
    <text x="512" y="334" text-anchor="middle" fill="#1F2430" font-family="'Segoe UI', Arial, sans-serif" font-size="18" font-weight="700">Open a workspace view</text>
    <text x="512" y="359" text-anchor="middle" fill="#7C8290" font-family="'Segoe UI', Arial, sans-serif" font-size="12" font-weight="500">Files, workflows, reports, dashboards, and video previews appear here.</text>
  </g>

  <g id="workspace-cards">
    <g transform="translate(190 380)">
      <rect width="301" height="72" rx="16" fill="#FFFFFF" stroke="#E6E8ED"/>
      <g transform="translate(14 16)" stroke="#7C8494" stroke-width="1.7" fill="none">
        <use href="#icon-folder" width="18" height="18"/>
      </g>
      <text x="37" y="24" fill="#232834" font-family="'Segoe UI', Arial, sans-serif" font-size="14" font-weight="700">Files</text>
      <text x="37" y="47" fill="#7C8290" font-family="'Segoe UI', Arial, sans-serif" font-size="11" font-weight="600">Browse session files and generated</text>
      <text x="37" y="62" fill="#7C8290" font-family="'Segoe UI', Arial, sans-serif" font-size="11" font-weight="600">outputs.</text>
      <circle cx="274" cy="24" r="11.5" fill="#FCFCFD" stroke="#E5E7EB"/>
      <g transform="translate(268 18)" stroke="#8A91A0" stroke-width="1.8" fill="none">
        <use href="#icon-open-arrow" width="12" height="12"/>
      </g>
    </g>

    <g transform="translate(499 380)">
      <rect width="301" height="72" rx="16" fill="#FFFFFF" stroke="#E6E8ED"/>
      <g transform="translate(14 16)" stroke="#7C8494" stroke-width="1.7" fill="none">
        <use href="#icon-workflow" width="18" height="18"/>
      </g>
      <text x="37" y="24" fill="#232834" font-family="'Segoe UI', Arial, sans-serif" font-size="14" font-weight="700">Workflow</text>
      <text x="37" y="47" fill="#7C8290" font-family="'Segoe UI', Arial, sans-serif" font-size="11" font-weight="600">Inspect node graph and runtime</text>
      <text x="37" y="62" fill="#7C8290" font-family="'Segoe UI', Arial, sans-serif" font-size="11" font-weight="600">progression.</text>
      <circle cx="274" cy="24" r="11.5" fill="#FCFCFD" stroke="#E5E7EB"/>
      <g transform="translate(268 18)" stroke="#8A91A0" stroke-width="1.8" fill="none">
        <use href="#icon-open-arrow" width="12" height="12"/>
      </g>
    </g>

    <g transform="translate(190 460)">
      <rect width="301" height="58" rx="16" fill="#FFFFFF" stroke="#E6E8ED"/>
      <g transform="translate(14 16)" stroke="#7C8494" stroke-width="1.7" fill="none">
        <use href="#icon-document" width="18" height="18"/>
      </g>
      <text x="37" y="25" fill="#232834" font-family="'Segoe UI', Arial, sans-serif" font-size="14" font-weight="700">Report</text>
      <text x="37" y="46" fill="#7C8290" font-family="'Segoe UI', Arial, sans-serif" font-size="11" font-weight="600">Read generated report content and steps.</text>
      <circle cx="274" cy="24" r="11.5" fill="#FCFCFD" stroke="#E5E7EB"/>
      <g transform="translate(268 18)" stroke="#8A91A0" stroke-width="1.8" fill="none">
        <use href="#icon-open-arrow" width="12" height="12"/>
      </g>
    </g>

    <g transform="translate(499 460)">
      <rect width="301" height="58" rx="16" fill="#FFFFFF" stroke="#E6E8ED"/>
      <g transform="translate(14 16)" fill="#7C8494" stroke="#7C8494" stroke-width="0.35">
        <use href="#icon-dashboard" width="18" height="18"/>
      </g>
      <text x="37" y="25" fill="#232834" font-family="'Segoe UI', Arial, sans-serif" font-size="14" font-weight="700">Dashboard</text>
      <text x="37" y="46" fill="#7C8290" font-family="'Segoe UI', Arial, sans-serif" font-size="11" font-weight="600">Preview charts and visual analytics results.</text>
      <circle cx="274" cy="24" r="11.5" fill="#FCFCFD" stroke="#E5E7EB"/>
      <g transform="translate(268 18)" stroke="#8A91A0" stroke-width="1.8" fill="none">
        <use href="#icon-open-arrow" width="12" height="12"/>
      </g>
    </g>

    <g transform="translate(190 528)">
      <rect width="301" height="72" rx="16" fill="#FFFFFF" stroke="#E6E8ED"/>
      <g transform="translate(14 16)" stroke="#7C8494" stroke-width="1.7" fill="none">
        <use href="#icon-video" width="18" height="18"/>
      </g>
      <text x="37" y="24" fill="#232834" font-family="'Segoe UI', Arial, sans-serif" font-size="14" font-weight="700">Video Preview</text>
      <text x="37" y="47" fill="#7C8290" font-family="'Segoe UI', Arial, sans-serif" font-size="11" font-weight="600">Track and preview generated video</text>
      <text x="37" y="62" fill="#7C8290" font-family="'Segoe UI', Arial, sans-serif" font-size="11" font-weight="600">artifacts.</text>
      <circle cx="274" cy="24" r="11.5" fill="#FCFCFD" stroke="#E5E7EB"/>
      <g transform="translate(268 18)" stroke="#8A91A0" stroke-width="1.8" fill="none">
        <use href="#icon-open-arrow" width="12" height="12"/>
      </g>
    </g>
  </g>
</svg>
