<svg width="64" height="64" viewBox="0 0 64 64" fill="none" xmlns="http://www.w3.org/2000/svg">
  <title>Files icon</title>
  <rect x="6" y="6" width="52" height="52" rx="18" fill="#FCFCFD" stroke="#E5E7EB" stroke-width="1.5"/>
  <g transform="translate(19 20)" stroke="#7C8494" stroke-width="1.75" fill="none">
    <path d="m6 14 1.5-2.9A2 2 0 0 1 9.24 10H20a2 2 0 0 1 1.94 2.5l-1.54 6a2 2 0 0 1-1.95 1.5H4a2 2 0 0 1-2-2V5a2 2 0 0 1 2-2h3.9a2 2 0 0 1 1.69.9l.81 1.2a2 2 0 0 0 1.67.9H18a2 2 0 0 1 2 2v2" stroke-linecap="round" stroke-linejoin="round"/>
  </g>
</svg>
