<svg width="64" height="64" viewBox="0 0 64 64" fill="none" xmlns="http://www.w3.org/2000/svg">
  <title>Render final HTML report</title>
  <defs>
    <linearGradient id="bg-render-html" x1="10" y1="10" x2="54" y2="54" gradientUnits="userSpaceOnUse">
      <stop offset="0" stop-color="#FEFEFF"/>
      <stop offset="1" stop-color="#F3F5F9"/>
    </linearGradient>
  </defs>
  <rect x="6" y="6" width="52" height="52" rx="18" fill="url(#bg-render-html)" stroke="#DFE4EB" stroke-width="1.5"/>
  <g transform="translate(20 20)" stroke="#7D838F" stroke-width="1.8" stroke-linecap="round" stroke-linejoin="round" fill="none" color="#7D838F">
    <path d="M12 22a1 1 0 0 1 0-20 10 9 0 0 1 10 9 5 5 0 0 1-5 5h-2.25a1.75 1.75 0 0 0-1.4 2.8l.3.4a1.75 1.75 0 0 1-1.4 2.8z"/>
    <circle cx="13.5" cy="6.5" r=".8" fill="#7D838F" stroke="none"/>
    <circle cx="17.5" cy="10.5" r=".8" fill="#7D838F" stroke="none"/>
    <circle cx="6.5" cy="12.5" r=".8" fill="#7D838F" stroke="none"/>
    <circle cx="8.5" cy="7.5" r=".8" fill="#7D838F" stroke="none"/>
  </g>
</svg>
