<svg width="64" height="64" viewBox="0 0 64 64" fill="none" xmlns="http://www.w3.org/2000/svg">
  <title>Write analysis summary and conclusions</title>
  <defs>
    <linearGradient id="bg-summary" x1="10" y1="10" x2="54" y2="54" gradientUnits="userSpaceOnUse">
      <stop offset="0" stop-color="#FFFCFA"/>
      <stop offset="1" stop-color="#F8EFE9"/>
    </linearGradient>
  </defs>
  <rect x="6" y="6" width="52" height="52" rx="18" fill="url(#bg-summary)" stroke="#E0C7BD" stroke-width="1.5"/>
  <g transform="translate(20 20)" stroke="#B55C2B" stroke-width="1.8" stroke-linecap="round" stroke-linejoin="round" fill="none">
    <path d="M15.707 21.293a1 1 0 0 1-1.414 0l-1.586-1.586a1 1 0 0 1 0-1.414l5.586-5.586a1 1 0 0 1 1.414 0l1.586 1.586a1 1 0 0 1 0 1.414z"/>
    <path d="m18 13-1.375-6.874a1 1 0 0 0-.746-.776L3.235 2.028a1 1 0 0 0-1.207 1.207L5.35 15.879a1 1 0 0 0 .776.746L13 18"/>
    <path d="m2.3 2.3 7.286 7.286"/>
    <circle cx="11" cy="11" r="2"/>
  </g>
</svg>
