<svg width="64" height="64" viewBox="0 0 64 64" fill="none" xmlns="http://www.w3.org/2000/svg">
  <title>Perform deep exploratory analysis</title>
  <defs>
    <linearGradient id="bg-eda" x1="10" y1="10" x2="54" y2="54" gradientUnits="userSpaceOnUse">
      <stop offset="0" stop-color="#FFFDFC"/>
      <stop offset="1" stop-color="#F7F3F1"/>
    </linearGradient>
  </defs>
  <rect x="6" y="6" width="52" height="52" rx="18" fill="url(#bg-eda)" stroke="#E1D8D3" stroke-width="1.5"/>
  <g transform="translate(20 20)" stroke="#5E6472" stroke-width="1.75" stroke-linecap="round" stroke-linejoin="round" fill="none">
    <path d="M3 7V5a2 2 0 0 1 2-2h2"/>
    <path d="M17 3h2a2 2 0 0 1 2 2v2"/>
    <path d="M21 17v2a2 2 0 0 1-2 2h-2"/>
    <path d="M7 21H5a2 2 0 0 1-2-2v-2"/>
    <circle cx="12" cy="12" r="3"/>
    <path d="m16 16-1.9-1.9"/>
  </g>
</svg>
